<mxfile host="app.diagrams.net" modified="2023-12-15T03:41:10.073Z" agent="Mozilla/5.0 (Macintosh; Intel Mac OS X 10.15; rv:120.0) Gecko/20100101 Firefox/120.0" version="22.1.9" etag="wUkS1tcaXM3gy9pnoBQH" type="github">
  <diagram name="第 1 页" id="fjvCwgZm9ml3jsPmNqKB">
    <mxGraphModel>
      <root>
        <mxCell id="0" />
        <mxCell id="1" parent="0" />
      </root>
    </mxGraphModel>
  </diagram>
</mxfile>
